# xmcd
#
# Track frame offsets:
#	150
#	13837
#	30712
#	45975
#	61705
#	76160
#	88120
#	100692
#	116885
#	128320
#	139150
#	155052
#	171032
#	188612
#	205380
#	222372
#
# Disc length: 3148 seconds
#
# Revision: 0
# Processed by: cddbd v1.5.1PL0 Copyright (c) Steve Scherf et al.
# Submitted via: dBpowerAMP V4.0
#
DISCID=cf0c4a10
DTITLE=Delta Music Gmbh - Ein bischen Spaß muß sein
DYEAR=2003
DGENRE=Country
TTITLE0=Michael Morgan- Beautiful Sunday
TTITLE1=Andy Borg-Die berühmten drei Worte
TTITLE2=Nina&Mike-Paloma Blanka
TTITLE3=Marc Hendric-SOS an bord
TTITLE4=James Lloyd- Keep on smiling
TTITLE5=Rene´ Pascal- Eine schöne Frau lässt man nicht weinen
TTITLE6=Roberto Blanco-Ein bischen spaß muss sein
TTITLE7=Diana Leonhardt-Wegen dir
TTITLE8=Die Flippers-Heut´ ruft mein Herz nur nach dir
TTITLE9=Manfred Morgan-Ticket
TTITLE10=Sommer&Sommer-wir sind alle 40
TTITLE11=Leonard-Du und ich
TTITLE12=Mike Fender- Marmor, Stein und Eisen bricht..
TTITLE13=AngelaDupree-Du hast mich tausendmal belogen
TTITLE14=Jürgen Marcus-Eine neue Liebe ist wie ein neues Leben
TTITLE15=Geier sturzflug-Bruttosozialprodukt
EXTD=
EXTT0=
EXTT1=
EXTT2=
EXTT3=
EXTT4=
EXTT5=
EXTT6=
EXTT7=
EXTT8=
EXTT9=
EXTT10=
EXTT11=
EXTT12=
EXTT13=
EXTT14=
EXTT15=
PLAYORDER=
